PathFileType	4	(X/Y/Z)	/Users/mathieubourgeois/Desktop/Analyse/Traitement/Sujet_08/Data/Transformed_Sujet_08_velo_60.trc
DataRate	CameraRate	NumFrames	NumMarkers	Units	OrigDataRate	OrigDataStartFrame	OrigNumFrames
120.000000	120.000000	5	35	mm	120.000000	933	1866
Frame#	Time	RFHD			RANE			STRN			LANI			LKNE			T10			RHUM			RWRB			C7			LFWT			LTOE			RTOE			LWRA			LBWT			RBWT			RFWT			LKNI			RKNI			RKNE			LANE			RANI			LHEE			LHUM			LRAD			RRAD			RWRA			LWRB			LFHD			LBHD			RBHD			RSHO			LSHO			CLAV			LCAR			RCAR			
		X1	Y1	Z1	X2	Y2	Z2	X3	Y3	Z3	X4	Y4	Z4	X5	Y5	Z5	X6	Y6	Z6	X7	Y7	Z7	X8	Y8	Z8	X9	Y9	Z9	X10	Y10	Z10	X11	Y11	Z11	X12	Y12	Z12	X13	Y13	Z13	X14	Y14	Z14	X15	Y15	Z15	X16	Y16	Z16	X17	Y17	Z17	X18	Y18	Z18	X19	Y19	Z19	X20	Y20	Z20	X21	Y21	Z21	X22	Y22	Z22	X23	Y23	Z23	X24	Y24	Z24	X25	Y25	Z25	X26	Y26	Z26	X27	Y27	Z27	X28	Y28	Z28	X29	Y29	Z29	X30	Y30	Z30	X31	Y31	Z31	X32	Y32	Z32	X33	Y33	Z33	X34	Y34	Z34	X35	Y35	Z35	

934	7.774999999999999	223.1851196289062	1522.98828125	73.25093078613274	-120.3622283935547	587.8125610351562	173.0379943847656	-50.47396850585938	1166.295166015625	14.32057380676262	-232.8940124511719	303.1370849609375	-79.46643066406254	-103.2333221435547	692.5294799804688	-156.0596160888672	-205.624267578125	1356.296875	10.65024948120106	146.2390899658203	1082.561645507812	196.1336822509765	328.7410278320312	910.013916015625	249.2593231201172	9.716367721557615	1438.715942382812	15.22475147247306	-263.995849609375	1092.564086914062	-111.607147216797	-106.5981826782226	159.3340759277344	-122.0765457153321	45.86717605590819	485.4981689453125	143.3712005615234	358.2179260253906	937.2239379882812	-174.3829193115234	-402.94189453125	1152.433837890625	-42.39149475097668	-399.5157470703125	1157.392456054688	87.60175323486317	-243.978012084961	1100.833374023438	118.8029327392577	-130.0717010498047	628.631591796875	-51.88473129272466	58.85870742797851	885.1219482421875	70.78112792968746	33.29315948486326	945.4525146484375	175.3507843017578	-273.6164245605469	299.2534790039062	-159.8408203125001	-91.23728942871095	593.2352294921875	94.62440490722651	-319.6679382324219	290.0594177246094	-112.9792175292969	130.2455596923828	1078.204223632812	-175.3651123046875	183.7388916015625	1108.706298828125	-226.5611419677735	185.9765319824218	1105.642333984375	243.7715454101562	359.3302917480469	931.8353271484375	185.9061126708984	322.19140625	898.1658935546875	-228.0351104736328	224.514892578125	1533.835693359375	-54.10918426513678	69.40500640869142	1541.13916015625	-66.23859405517587	57.15569305419921	1545.841796875	70.50465393066396	63.83785247802733	1370.412719726562	139.0271606445312	52.77257919311525	1366.904052734375	-129.0643463134766	54.90183639526367	1307.206298828125	9.976693153381275	420.6105346679688	908.345703125	-257.2099609375	430.9949951171874	897.1715698242188	277.3321533203125	
935	7.783333333333333	222.2093658447266	1523.173950195312	73.33412170410149	-113.7074279785156	581.592529296875	173.0710144042968	-50.98594284057617	1166.084838867188	14.37663936614982	-238.5804595947266	308.6723022460938	-79.42781066894536	-100.3834991455078	694.6944580078125	-156.9091949462891	-205.9450378417969	1356.24267578125	10.70289611816395	145.9832458496093	1082.46630859375	196.1149749755859	328.6563415527343	910.0553588867188	249.2168579101562	9.33151340484619	1438.501220703125	14.96490955352774	-264.4145202636719	1092.638793945312	-111.5160522460938	-115.4519424438476	162.4057464599609	-122.043083190918	54.54436874389647	481.6407775878906	142.4822235107422	358.1753845214844	937.1849365234375	-174.4186248779297	-403.4354248046875	1152.300048828125	-42.29801940917981	-400.0151062011719	1157.157470703125	87.7312774658202	-244.3959655761719	1100.797607421875	118.9366607666015	-128.2244720458984	631.2925415039062	-52.327808380127	59.07934951782226	882.6498413085938	70.30245971679683	32.72134780883787	943.0335693359375	174.5004882812499	-279.4305114746094	305.6090087890625	-159.7893829345704	-84.6893768310547	587.5025634765625	94.61416625976557	-325.7703857421875	297.3978881835938	-112.9298934936524	130.0751953125	1077.944702148438	-175.322998046875	183.1877136230469	1108.475830078125	-226.8793182373047	185.7893981933593	1105.58984375	243.6632080078125	359.193603515625	931.8857421875	185.8317260742188	322.1785583496094	898.130615234375	-228.0753936767578	224.5872192382812	1534.2109375	-53.66159820556647	68.65982818603517	1540.848510742188	-66.48502349853524	56.18186950683593	1545.462158203125	70.24407958984365	63.45119857788085	1370.320190429688	138.8375701904296	52.29648590087892	1366.542846679688	-129.2352142333985	54.54404830932617	1306.979125976562	9.845968246459888	420.5752563476563	908.347900390625	-257.2709655761719	430.9167175292968	897.2315063476562	277.2727661132812	
936	7.791666666666667	221.3144378662109	1523.334716796875	73.43054199218743	-107.1468353271485	574.8445434570312	173.0128631591797	-51.4349479675293	1165.89404296875	14.4199495315551	-243.9576263427734	314.6451416015625	-79.3197402954102	-97.20181274414061	697.1029663085938	-157.7433624267579	-206.3334503173828	1356.1826171875	10.72838687896718	145.7472839355468	1082.235595703125	196.0397491455078	328.5837707519531	910.0999145507812	249.1537170410156	8.921281814575194	1438.318603515625	14.73393630981437	-264.7825927734375	1092.7353515625	-111.4064483642579	-124.0058670043945	166.0151977539062	-121.9781875610352	62.45459365844725	478.0140380859375	142.6047058105468	358.12939453125	937.0953979492188	-174.4690551757812	-403.8775939941406	1152.143920898438	-42.2310256958009	-400.4414672851562	1156.865112304688	87.82887268066395	-244.7351837158203	1100.753173828125	119.060562133789	-126.1355209350586	634.1593017578125	-52.71569824218755	59.28179550170898	879.4815673828125	69.86386108398433	32.1077079772949	939.8765258789062	173.6717071533203	-284.978515625	312.3443908691406	-159.6580047607422	-78.38366699218751	581.5819702148438	94.60618591308588	-331.5502014160156	305.1412353515625	-112.8145141601563	129.9009552001953	1077.630493164062	-175.2293395996094	182.9763641357422	1108.210815429688	-226.8321533203125	185.6021118164062	1105.526123046875	243.5589599609375	359.1084594726562	931.9404907226562	185.7621154785156	322.1638793945312	898.0367431640625	-228.1132202148438	223.1554107666016	1534.24755859375	-53.93204498291022	67.9895477294922	1540.5830078125	-66.75103759765634	55.2093391418457	1545.171508789062	69.92851257324209	63.22463989257811	1370.151733398438	138.6922760009765	51.85532379150392	1366.201416015625	-129.3978118896485	54.18453979492188	1306.734252929688	9.720183372497486	420.5651855468751	908.3412475585938	-257.3378601074219	430.8464965820312	897.295654296875	277.1973266601562	
937	7.8	220.369873046875	1523.490844726562	73.50868988037102	-100.8398895263672	567.6373901367188	172.8554992675781	-51.89151000976562	1165.745239257812	14.45717811584465	-249.3929901123047	320.8913879394531	-79.21840667724614	-93.83450317382811	699.5886840820312	-158.5929107666016	-206.7173614501953	1356.1435546875	10.745693206787	145.5466156005859	1082.130859375	195.9800872802734	328.5340881347656	910.1284790039062	249.0755767822265	8.534419059753416	1438.124389648438	14.51691532135001	-265.0200805664062	1092.83154296875	-111.2723770141603	-132.3062286376953	170.0992279052734	-121.9627075195313	70.38292694091795	473.5657653808594	142.4504241943359	358.1126098632812	937.0303344726562	-174.5220947265625	-404.2481384277344	1152.011474609375	-42.17989730834973	-400.8160400390625	1156.569213867188	87.93341827392567	-244.9625854492188	1100.712524414062	119.1581954956054	-122.7381820678711	637.0956420898438	-52.94028472900396	59.45078659057616	875.7822875976562	69.48069000244136	31.49412918090818	936.10791015625	173.0034637451171	-290.2829895019531	319.537353515625	-159.5060577392579	-73.5471878051758	574.364013671875	94.38578796386714	-337.0168151855469	313.2443542480469	-112.6303863525391	129.7762756347657	1077.369506835938	-175.1821746826172	182.7692565917969	1107.9580078125	-226.8293914794922	185.3905029296875	1105.477905273438	243.4385070800781	359.0167846679688	931.95947265625	185.6948394775391	322.1619567871094	895.9838256835938	-225.8717498779297	223.5357971191406	1534.73681640625	-53.48923492431647	67.35518646240236	1540.3408203125	-67.02039337158212	54.23462677001952	1544.882446289062	69.62322998046865	62.92773056030272	1369.994995117188	138.5565032958984	51.40592575073244	1365.881713867188	-129.5579986572266	53.83169937133789	1306.528564453125	9.61695861816399	420.5600585937501	908.3275756835938	-257.4188842773438	430.7914428710937	897.3499145507812	277.1216125488281	
938	7.808333333333334	219.4765930175781	1523.66259765625	73.56118774414055	-94.79150390625001	560.029541015625	172.6663665771484	-52.46575927734375	1165.606323242188	14.48313331603996	-254.0351867675781	327.6318664550781	-79.01425933837895	-90.32672882080077	702.3021850585938	-159.3791961669922	-207.0180511474609	1356.11328125	10.74254131317128	145.3801879882812	1082.016723632812	195.9094543457031	328.4967651367187	910.1600952148438	249.0099487304687	8.181598663330076	1437.97314453125	14.26210975646964	-265.1893310546875	1092.9716796875	-111.0961990356446	-140.2609710693359	174.6572418212891	-121.908676147461	77.98857116699217	468.5879821777344	142.287124633789	358.1160888671875	936.9837646484375	-174.5667724609375	-404.5754699707031	1151.899658203125	-42.07524871826184	-401.1402893066406	1156.277465820312	88.02194213867176	-245.0601043701172	1100.665771484375	119.2493438720702	-117.1415710449219	640.2011108398438	-52.97128295898443	59.13232040405273	872.0292358398438	69.13542175292964	30.81946182250974	931.7557983398438	172.4866485595703	-295.2616882324219	327.1163635253906	-159.3772277832032	-66.44161224365236	567.1678466796875	94.07141113281246	-342.1273803710938	321.7189331054688	-112.3918991088868	129.6528015136719	1077.1455078125	-175.1387786865235	182.9010314941407	1107.756103515625	-226.4808654785157	185.1932830810547	1105.417846679688	243.3142547607422	358.9699401855469	931.9868774414062	185.6425170898438	322.0625610351562	895.8309936523438	-225.9011688232422	219.2289276123047	1533.140991210938	-53.71231842041022	66.65981292724611	1540.072387695312	-67.2734909057618	53.26657485961913	1544.62646484375	69.30782318115224	62.53092575073241	1369.774047851562	138.4042816162109	51.0251808166504	1365.595825195312	-129.7261199951173	53.4568977355957	1306.324584960938	9.485149383544849	420.5559082031251	908.3002319335938	-257.4867248535156	430.7722167968749	897.4110107421875	277.0567626953125	
